<svg xmlns="http://www.w3.org/2000/svg" xmlns:xlink="http://www.w3.org/1999/xlink" width="500" zoomAndPan="magnify" viewBox="0 0 375 374.999991" height="500" preserveAspectRatio="xMidYMid meet" version="1.0">
    <defs>
        <clipPath id="id1">
            <path d="M 11.492188 132 L 138 132 L 138 283.925781 L 11.492188 283.925781 Z M 11.492188 132 " clip-rule="nonzero" />
        </clipPath>
        <clipPath id="id2">
            <path d="M 51 91.175781 L 201 91.175781 L 201 283.925781 L 51 283.925781 Z M 51 91.175781 " clip-rule="nonzero" />
        </clipPath>
        <clipPath id="id3">
            <path d="M 171 91.175781 L 321 91.175781 L 321 283.925781 L 171 283.925781 Z M 171 91.175781 " clip-rule="nonzero" />
        </clipPath>
        <clipPath id="id4">
            <path d="M 284 203 L 363.242188 203 L 363.242188 283 L 284 283 Z M 284 203 " clip-rule="nonzero" />
        </clipPath>
    </defs>
    <g clip-path="url(#id1)">
        <path fill="#ff1616" d="M 34.417969 138.234375 C 35.71875 137.484375 37.054688 136.796875 38.421875 136.175781 C 39.789062 135.554688 41.183594 135 42.605469 134.515625 C 44.027344 134.035156 45.46875 133.621094 46.929688 133.277344 C 48.394531 132.9375 49.871094 132.667969 51.359375 132.472656 C 52.847656 132.273438 54.339844 132.152344 55.84375 132.101562 C 57.34375 132.050781 58.84375 132.078125 60.339844 132.175781 C 61.839844 132.273438 63.328125 132.445312 64.8125 132.6875 C 66.292969 132.933594 67.757812 133.25 69.210938 133.640625 C 70.660156 134.027344 72.089844 134.488281 73.492188 135.019531 C 74.898438 135.546875 76.273438 136.144531 77.621094 136.808594 C 78.96875 137.476562 80.28125 138.203125 81.554688 139 C 82.832031 139.792969 84.0625 140.648438 85.253906 141.5625 C 86.445312 142.476562 87.589844 143.449219 88.6875 144.476562 C 89.78125 145.503906 90.824219 146.585938 91.8125 147.714844 C 92.804688 148.847656 93.738281 150.023438 94.609375 151.246094 C 95.484375 152.46875 96.296875 153.730469 97.046875 155.03125 L 131.382812 214.628906 C 132.132812 215.929688 132.820312 217.265625 133.441406 218.632812 C 134.058594 220.003906 134.613281 221.402344 135.09375 222.824219 C 135.578125 224.246094 135.992188 225.691406 136.332031 227.15625 C 136.671875 228.621094 136.941406 230.097656 137.136719 231.589844 C 137.335938 233.078125 137.457031 234.574219 137.507812 236.078125 C 137.558594 237.582031 137.53125 239.082031 137.433594 240.582031 C 137.335938 242.082031 137.164062 243.574219 136.921875 245.058594 C 136.675781 246.542969 136.359375 248.011719 135.972656 249.460938 C 135.582031 250.914062 135.125 252.34375 134.59375 253.753906 C 134.066406 255.160156 133.46875 256.539062 132.804688 257.886719 C 132.140625 259.234375 131.414062 260.546875 130.621094 261.824219 C 129.828125 263.101562 128.972656 264.335938 128.058594 265.527344 C 127.144531 266.722656 126.175781 267.867188 125.148438 268.964844 C 124.121094 270.0625 123.042969 271.105469 121.914062 272.097656 C 120.785156 273.085938 119.609375 274.019531 118.390625 274.894531 C 117.167969 275.773438 115.90625 276.585938 114.605469 277.335938 C 113.304688 278.089844 111.972656 278.777344 110.605469 279.398438 C 109.238281 280.019531 107.84375 280.570312 106.421875 281.054688 C 105 281.539062 103.558594 281.949219 102.09375 282.292969 C 100.632812 282.632812 99.15625 282.902344 97.667969 283.101562 C 96.179688 283.296875 94.683594 283.421875 93.183594 283.46875 C 91.683594 283.519531 90.183594 283.496094 88.683594 283.398438 C 87.1875 283.300781 85.695312 283.128906 84.214844 282.882812 C 82.734375 282.636719 81.265625 282.320312 79.816406 281.933594 C 78.367188 281.542969 76.9375 281.082031 75.53125 280.554688 C 74.125 280.023438 72.75 279.425781 71.402344 278.761719 C 70.058594 278.097656 68.746094 277.367188 67.472656 276.574219 C 66.195312 275.78125 64.960938 274.925781 63.769531 274.007812 C 62.578125 273.09375 61.4375 272.121094 60.339844 271.09375 C 59.246094 270.066406 58.203125 268.988281 57.210938 267.855469 C 56.222656 266.726562 55.289062 265.550781 54.414062 264.328125 C 53.539062 263.105469 52.726562 261.84375 51.976562 260.539062 L 17.644531 200.921875 C 16.890625 199.621094 16.207031 198.285156 15.585938 196.914062 C 14.964844 195.546875 14.414062 194.148438 13.929688 192.726562 C 13.449219 191.300781 13.035156 189.859375 12.695312 188.394531 C 12.351562 186.929688 12.085938 185.453125 11.886719 183.960938 C 11.691406 182.46875 11.566406 180.972656 11.519531 179.472656 C 11.46875 177.96875 11.492188 176.464844 11.589844 174.964844 C 11.691406 173.464844 11.859375 171.972656 12.105469 170.492188 C 12.347656 169.007812 12.667969 167.539062 13.054688 166.085938 C 13.441406 164.632812 13.902344 163.203125 14.429688 161.796875 C 14.960938 160.390625 15.554688 159.011719 16.21875 157.664062 C 16.882812 156.316406 17.613281 155.003906 18.40625 153.726562 C 19.199219 152.449219 20.054688 151.214844 20.96875 150.019531 C 21.882812 148.828125 22.851562 147.683594 23.878906 146.585938 C 24.90625 145.488281 25.984375 144.445312 27.113281 143.453125 C 28.242188 142.460938 29.417969 141.527344 30.636719 140.652344 C 31.859375 139.777344 33.117188 138.964844 34.417969 138.210938 Z M 34.417969 138.234375 " fill-opacity="1" fill-rule="evenodd" />
    </g>
    <g clip-path="url(#id2)">
        <path fill="#ff1616" d="M 177.863281 97.789062 C 176.5625 97.035156 175.226562 96.347656 173.859375 95.726562 C 172.492188 95.105469 171.097656 94.554688 169.675781 94.070312 C 168.253906 93.585938 166.8125 93.171875 165.351562 92.832031 C 163.886719 92.488281 162.410156 92.21875 160.921875 92.023438 C 159.433594 91.828125 157.941406 91.703125 156.4375 91.65625 C 154.9375 91.605469 153.4375 91.628906 151.941406 91.726562 C 150.441406 91.824219 148.953125 91.996094 147.46875 92.242188 C 145.988281 92.488281 144.523438 92.804688 143.070312 93.191406 C 141.621094 93.582031 140.191406 94.039062 138.789062 94.570312 C 137.382812 95.101562 136.003906 95.699219 134.660156 96.363281 C 133.3125 97.027344 132 97.757812 130.726562 98.550781 C 129.449219 99.34375 128.21875 100.199219 127.027344 101.113281 C 125.835938 102.03125 124.691406 103.003906 123.59375 104.03125 C 122.5 105.058594 121.457031 106.136719 120.46875 107.269531 C 119.476562 108.398438 118.542969 109.574219 117.671875 110.796875 C 116.796875 112.019531 115.984375 113.28125 115.234375 114.585938 L 57.570312 214.628906 C 56.820312 215.929688 56.132812 217.265625 55.515625 218.636719 C 54.894531 220.003906 54.34375 221.402344 53.859375 222.824219 C 53.378906 224.25 52.964844 225.691406 52.625 227.15625 C 52.285156 228.621094 52.015625 230.097656 51.820312 231.589844 C 51.625 233.078125 51.5 234.574219 51.453125 236.078125 C 51.402344 237.582031 51.429688 239.082031 51.527344 240.582031 C 51.625 242.082031 51.796875 243.574219 52.039062 245.058594 C 52.285156 246.539062 52.601562 248.007812 52.988281 249.460938 C 53.378906 250.914062 53.835938 252.34375 54.367188 253.75 C 54.894531 255.15625 55.492188 256.535156 56.152344 257.882812 C 56.816406 259.230469 57.546875 260.542969 58.339844 261.820312 C 59.132812 263.097656 59.984375 264.332031 60.898438 265.523438 C 61.8125 266.71875 62.78125 267.863281 63.808594 268.960938 C 64.835938 270.058594 65.914062 271.101562 67.042969 272.09375 C 68.171875 273.085938 69.34375 274.019531 70.566406 274.894531 C 71.785156 275.769531 73.046875 276.585938 74.34375 277.335938 C 75.644531 278.089844 76.980469 278.773438 78.347656 279.394531 C 79.714844 280.015625 81.109375 280.566406 82.53125 281.050781 C 83.953125 281.535156 85.394531 281.945312 86.859375 282.289062 C 88.320312 282.628906 89.796875 282.898438 91.285156 283.09375 C 92.773438 283.289062 94.265625 283.414062 95.769531 283.460938 C 97.269531 283.511719 98.769531 283.488281 100.265625 283.386719 C 101.765625 283.289062 103.253906 283.117188 104.734375 282.875 C 106.21875 282.628906 107.683594 282.3125 109.132812 281.921875 C 110.582031 281.535156 112.011719 281.074219 113.417969 280.546875 C 114.820312 280.015625 116.199219 279.417969 117.542969 278.753906 C 118.890625 278.089844 120.203125 277.359375 121.476562 276.566406 C 122.753906 275.773438 123.984375 274.917969 125.175781 274.003906 C 126.367188 273.089844 127.511719 272.117188 128.609375 271.089844 C 129.703125 270.0625 130.746094 268.984375 131.738281 267.851562 C 132.726562 266.722656 133.660156 265.546875 134.535156 264.324219 C 135.410156 263.101562 136.222656 261.839844 136.972656 260.539062 L 194.636719 160.472656 C 195.390625 159.171875 196.074219 157.835938 196.695312 156.46875 C 197.316406 155.097656 197.871094 153.703125 198.355469 152.277344 C 198.835938 150.855469 199.25 149.410156 199.59375 147.945312 C 199.933594 146.480469 200.203125 145.003906 200.402344 143.515625 C 200.597656 142.023438 200.71875 140.527344 200.769531 139.023438 C 200.820312 137.519531 200.796875 136.019531 200.699219 134.519531 C 200.601562 133.015625 200.429688 131.523438 200.183594 130.042969 C 199.941406 128.558594 199.625 127.089844 199.234375 125.636719 C 198.847656 124.183594 198.386719 122.753906 197.859375 121.347656 C 197.328125 119.941406 196.734375 118.5625 196.070312 117.210938 C 195.40625 115.863281 194.675781 114.550781 193.882812 113.273438 C 193.089844 111.996094 192.234375 110.761719 191.320312 109.570312 C 190.40625 108.378906 189.433594 107.234375 188.40625 106.136719 C 187.378906 105.039062 186.300781 103.996094 185.171875 103.003906 C 184.042969 102.011719 182.867188 101.078125 181.644531 100.203125 C 180.425781 99.328125 179.164062 98.515625 177.863281 97.765625 Z M 177.863281 97.789062 " fill-opacity="1" fill-rule="evenodd" />
    </g>
    <g clip-path="url(#id3)">
        <path fill="#ff5757" d="M 297.503906 97.789062 C 296.203125 97.035156 294.871094 96.347656 293.503906 95.726562 C 292.136719 95.105469 290.742188 94.554688 289.320312 94.070312 C 287.898438 93.585938 286.457031 93.171875 284.992188 92.832031 C 283.53125 92.488281 282.054688 92.21875 280.566406 92.023438 C 279.078125 91.828125 277.582031 91.703125 276.082031 91.65625 C 274.582031 91.605469 273.082031 91.628906 271.582031 91.726562 C 270.085938 91.824219 268.59375 91.996094 267.113281 92.242188 C 265.632812 92.488281 264.164062 92.804688 262.714844 93.191406 C 261.265625 93.582031 259.835938 94.039062 258.429688 94.570312 C 257.023438 95.101562 255.648438 95.699219 254.300781 96.363281 C 252.957031 97.027344 251.644531 97.757812 250.371094 98.550781 C 249.09375 99.34375 247.859375 100.199219 246.667969 101.113281 C 245.476562 102.03125 244.335938 103.003906 243.238281 104.03125 C 242.144531 105.058594 241.101562 106.136719 240.109375 107.269531 C 239.121094 108.398438 238.1875 109.574219 237.3125 110.796875 C 236.4375 112.019531 235.625 113.28125 234.875 114.585938 L 177.214844 214.628906 C 176.460938 215.929688 175.777344 217.265625 175.15625 218.632812 C 174.535156 220.003906 173.984375 221.402344 173.5 222.824219 C 173.015625 224.246094 172.605469 225.691406 172.261719 227.15625 C 171.921875 228.621094 171.652344 230.097656 171.457031 231.589844 C 171.261719 233.078125 171.136719 234.574219 171.089844 236.078125 C 171.039062 237.582031 171.0625 239.082031 171.160156 240.582031 C 171.257812 242.082031 171.429688 243.574219 171.675781 245.058594 C 171.917969 246.542969 172.234375 248.011719 172.625 249.460938 C 173.011719 250.914062 173.472656 252.34375 174 253.753906 C 174.527344 255.160156 175.125 256.539062 175.789062 257.886719 C 176.453125 259.234375 177.183594 260.546875 177.976562 261.824219 C 178.769531 263.101562 179.621094 264.335938 180.535156 265.527344 C 181.449219 266.722656 182.421875 267.867188 183.449219 268.964844 C 184.472656 270.0625 185.550781 271.105469 186.679688 272.097656 C 187.8125 273.085938 188.984375 274.019531 190.207031 274.894531 C 191.425781 275.773438 192.6875 276.585938 193.988281 277.335938 C 195.289062 278.089844 196.621094 278.777344 197.988281 279.398438 C 199.359375 280.019531 200.753906 280.570312 202.175781 281.054688 C 203.597656 281.539062 205.039062 281.949219 206.5 282.292969 C 207.960938 282.632812 209.4375 282.902344 210.925781 283.101562 C 212.414062 283.296875 213.910156 283.421875 215.410156 283.46875 C 216.914062 283.519531 218.410156 283.496094 219.910156 283.398438 C 221.410156 283.300781 222.898438 283.128906 224.378906 282.882812 C 225.863281 282.636719 227.328125 282.320312 228.777344 281.933594 C 230.230469 281.542969 231.65625 281.082031 233.0625 280.554688 C 234.46875 280.023438 235.84375 279.425781 237.191406 278.761719 C 238.539062 278.097656 239.847656 277.367188 241.125 276.574219 C 242.398438 275.78125 243.632812 274.925781 244.824219 274.007812 C 246.015625 273.09375 247.160156 272.121094 248.253906 271.09375 C 249.351562 270.066406 250.394531 268.988281 251.382812 267.855469 C 252.375 266.726562 253.304688 265.550781 254.179688 264.328125 C 255.054688 263.105469 255.867188 261.84375 256.617188 260.539062 L 314.304688 160.496094 C 315.054688 159.195312 315.738281 157.859375 316.359375 156.488281 C 316.980469 155.121094 317.53125 153.722656 318.015625 152.300781 C 318.5 150.875 318.910156 149.433594 319.253906 147.96875 C 319.59375 146.503906 319.863281 145.027344 320.058594 143.535156 C 320.253906 142.046875 320.378906 140.550781 320.429688 139.046875 C 320.476562 137.542969 320.453125 136.042969 320.355469 134.542969 C 320.257812 133.042969 320.085938 131.550781 319.839844 130.066406 C 319.597656 128.582031 319.28125 127.113281 318.890625 125.660156 C 318.503906 124.210938 318.046875 122.78125 317.515625 121.371094 C 316.988281 119.964844 316.390625 118.585938 315.726562 117.238281 C 315.0625 115.890625 314.332031 114.578125 313.539062 113.300781 C 312.746094 112.023438 311.894531 110.789062 310.980469 109.597656 C 310.066406 108.402344 309.09375 107.257812 308.066406 106.160156 C 307.042969 105.0625 305.964844 104.019531 304.835938 103.027344 C 303.707031 102.035156 302.53125 101.105469 301.308594 100.226562 C 300.089844 99.351562 298.828125 98.539062 297.527344 97.789062 Z M 297.503906 97.789062 " fill-opacity="1" fill-rule="evenodd" />
    </g>
    <g clip-path="url(#id4)">
        <path fill="#ff5757" d="M 284.015625 242.824219 C 284.015625 241.527344 284.082031 240.230469 284.207031 238.9375 C 284.335938 237.644531 284.527344 236.359375 284.777344 235.085938 C 285.03125 233.8125 285.347656 232.554688 285.722656 231.3125 C 286.101562 230.066406 286.535156 228.847656 287.03125 227.644531 C 287.527344 226.445312 288.082031 225.273438 288.695312 224.128906 C 289.304688 222.980469 289.972656 221.867188 290.691406 220.789062 C 291.414062 219.707031 292.1875 218.667969 293.007812 217.664062 C 293.832031 216.65625 294.703125 215.695312 295.621094 214.777344 C 296.535156 213.859375 297.496094 212.988281 298.5 212.164062 C 299.503906 211.339844 300.542969 210.566406 301.621094 209.84375 C 302.703125 209.125 303.8125 208.457031 304.957031 207.84375 C 306.101562 207.230469 307.273438 206.675781 308.472656 206.179688 C 309.667969 205.683594 310.890625 205.246094 312.132812 204.867188 C 313.371094 204.492188 314.628906 204.175781 315.902344 203.921875 C 317.175781 203.667969 318.457031 203.480469 319.746094 203.351562 C 321.039062 203.226562 322.332031 203.160156 323.628906 203.160156 C 324.925781 203.160156 326.222656 203.226562 327.511719 203.351562 C 328.804688 203.480469 330.085938 203.667969 331.359375 203.921875 C 332.628906 204.175781 333.886719 204.492188 335.128906 204.867188 C 336.371094 205.246094 337.589844 205.683594 338.789062 206.179688 C 339.988281 206.675781 341.160156 207.230469 342.304688 207.84375 C 343.449219 208.457031 344.558594 209.125 345.636719 209.84375 C 346.714844 210.566406 347.757812 211.339844 348.761719 212.164062 C 349.761719 212.988281 350.722656 213.859375 351.640625 214.777344 C 352.558594 215.695312 353.429688 216.65625 354.25 217.664062 C 355.074219 218.667969 355.847656 219.707031 356.566406 220.789062 C 357.289062 221.867188 357.953125 222.980469 358.566406 224.128906 C 359.175781 225.273438 359.730469 226.445312 360.226562 227.644531 C 360.722656 228.847656 361.160156 230.066406 361.535156 231.3125 C 361.914062 232.554688 362.230469 233.8125 362.480469 235.085938 C 362.734375 236.359375 362.925781 237.644531 363.050781 238.9375 C 363.179688 240.230469 363.242188 241.527344 363.242188 242.824219 C 363.242188 244.125 363.179688 245.417969 363.050781 246.710938 C 362.925781 248.003906 362.734375 249.289062 362.480469 250.5625 C 362.230469 251.835938 361.914062 253.09375 361.535156 254.339844 C 361.160156 255.582031 360.722656 256.804688 360.226562 258.003906 C 359.730469 259.203125 359.175781 260.375 358.566406 261.523438 C 357.953125 262.667969 357.289062 263.78125 356.566406 264.859375 C 355.847656 265.941406 355.074219 266.984375 354.25 267.988281 C 353.429688 268.992188 352.558594 269.953125 351.640625 270.871094 C 350.722656 271.789062 349.761719 272.660156 348.761719 273.484375 C 347.757812 274.308594 346.714844 275.082031 345.636719 275.804688 C 344.558594 276.523438 343.449219 277.191406 342.304688 277.804688 C 341.160156 278.417969 339.988281 278.972656 338.789062 279.46875 C 337.589844 279.964844 336.371094 280.402344 335.128906 280.78125 C 333.886719 281.15625 332.628906 281.472656 331.359375 281.726562 C 330.085938 281.980469 328.804688 282.167969 327.511719 282.296875 C 326.222656 282.425781 324.925781 282.488281 323.628906 282.488281 C 322.332031 282.488281 321.039062 282.425781 319.746094 282.296875 C 318.457031 282.167969 317.175781 281.980469 315.902344 281.726562 C 314.628906 281.472656 313.371094 281.15625 312.132812 280.78125 C 310.890625 280.402344 309.667969 279.964844 308.472656 279.46875 C 307.273438 278.972656 306.101562 278.417969 304.957031 277.804688 C 303.8125 277.191406 302.703125 276.523438 301.621094 275.804688 C 300.542969 275.082031 299.503906 274.308594 298.5 273.484375 C 297.496094 272.660156 296.535156 271.789062 295.621094 270.871094 C 294.703125 269.953125 293.832031 268.992188 293.007812 267.988281 C 292.1875 266.984375 291.414062 265.941406 290.691406 264.859375 C 289.972656 263.78125 289.304688 262.667969 288.695312 261.523438 C 288.082031 260.375 287.527344 259.203125 287.03125 258.003906 C 286.535156 256.804688 286.101562 255.582031 285.722656 254.339844 C 285.347656 253.09375 285.03125 251.835938 284.777344 250.5625 C 284.527344 249.289062 284.335938 248.003906 284.207031 246.710938 C 284.082031 245.417969 284.015625 244.125 284.015625 242.824219 Z M 284.015625 242.824219 " fill-opacity="1" fill-rule="evenodd" />
    </g>
</svg>