<svg xmlns="http://www.w3.org/2000/svg" xmlns:xlink="http://www.w3.org/1999/xlink" width="500" zoomAndPan="magnify" viewBox="0 0 375 374.999991" height="500" preserveAspectRatio="xMidYMid meet" version="1.0">
    <defs>
        <clipPath id="id1">
            <path d="M 49.136719 12.410156 L 325.886719 12.410156 L 325.886719 362.660156 L 49.136719 362.660156 Z M 49.136719 12.410156 " clip-rule="nonzero" />
        </clipPath>
    </defs>
    <g clip-path="url(#id1)">
        <path fill="#f83838" d="M 302.242188 139.542969 C 296.996094 131.570312 290.625 123.597656 282.890625 116.117188 C 245.191406 79.710938 205.585938 63.59375 203.015625 15.839844 C 202.914062 13.863281 200.988281 12.519531 199.097656 13.097656 C 191.3125 15.464844 172.828125 23.03125 155.84375 44.53125 C 141.808594 62.300781 133.527344 83.917969 131.210938 106.457031 C 129.101562 126.902344 126.835938 158.609375 130.222656 178.132812 C 130.222656 178.132812 132.898438 201.472656 112.898438 205.460938 C 112.898438 205.460938 80.242188 214.132812 86.238281 152.132812 C 86.238281 152.132812 81.519531 145.0625 68.164062 166.820312 C 56.378906 186.019531 50.109375 208.050781 49.257812 230.554688 C 48.78125 242.976562 49.597656 256.433594 53.582031 266.792969 C 63.445312 292.449219 75.269531 332.382812 136.40625 359.046875 C 138.894531 360.121094 141.46875 360.988281 144.125 361.550781 C 149.695312 362.726562 156.765625 362.929688 148.910156 353.457031 C 146.40625 350.441406 117.976562 327.648438 125.316406 291.1875 C 126.730469 284.152344 136 282.210938 139.917969 288.222656 C 141.3125 290.371094 142.761719 293.164062 144.242188 296.792969 C 152.300781 316.640625 218.089844 325.535156 237.390625 277.253906 C 239.382812 272.261719 240.558594 267.011719 241.222656 261.679688 C 242.195312 253.878906 245.859375 238.886719 258.890625 265.464844 C 272.773438 293.796875 257.03125 330.9375 246.777344 346.761719 C 244.019531 351.023438 248.53125 356.234375 253.132812 354.105469 C 255.261719 353.117188 257.78125 351.652344 260.730469 349.539062 C 263.078125 347.851562 265.515625 346.25 267.953125 344.683594 C 279.792969 337.152344 317.164062 308.140625 324.917969 238.121094 C 328.75 203.601562 321.324219 168.558594 302.242188 139.542969 Z M 293.351562 215.359375 C 283.980469 194.097656 262.023438 145.660156 245.875 120.957031 C 244.921875 119.492188 246.742188 117.839844 248.105469 118.929688 C 263.574219 131.164062 297.457031 163.667969 298.273438 214.269531 C 298.308594 217.0625 294.476562 217.914062 293.351562 215.359375 Z M 293.351562 215.359375 " fill-opacity="1" fill-rule="nonzero" />
    </g>
</svg>