<svg xmlns="http://www.w3.org/2000/svg" xmlns:xlink="http://www.w3.org/1999/xlink" width="500" zoomAndPan="magnify" viewBox="0 0 375 374.999991" height="500" preserveAspectRatio="xMidYMid meet" version="1.0">
    <defs>
        <clipPath id="id1">
            <path d="M 93.605469 102.042969 L 328.355469 102.042969 L 328.355469 273.042969 L 93.605469 273.042969 Z M 93.605469 102.042969 " clip-rule="nonzero" />
        </clipPath>
        <clipPath id="id2">
            <path d="M 29 160 L 256 160 L 256 369 L 29 369 Z M 29 160 " clip-rule="nonzero" />
        </clipPath>
        <clipPath id="id3">
            <path d="M 96.800781 160.359375 L 255.714844 249.585938 L 188.886719 368.609375 L 29.972656 279.382812 Z M 96.800781 160.359375 " clip-rule="nonzero" />
        </clipPath>
        <clipPath id="id4">
            <path d="M 22 6.28125 L 353.410156 6.28125 L 353.410156 368.53125 L 22 368.53125 Z M 22 6.28125 " clip-rule="nonzero" />
        </clipPath>
    </defs>
    <g clip-path="url(#id1)">
        <path fill="#ffffff" d="M 93.605469 102.042969 L 328.351562 102.042969 L 328.351562 273.042969 L 93.605469 273.042969 L 93.605469 102.042969 " fill-opacity="1" fill-rule="nonzero" />
    </g>
    <g clip-path="url(#id2)">
        <g clip-path="url(#id3)">
            <path fill="#ffffff" d="M 96.796875 160.363281 L 255.714844 249.585938 L 188.886719 368.609375 L 29.972656 279.382812 L 96.796875 160.363281 " fill-opacity="1" fill-rule="nonzero" />
        </g>
    </g>
    <g clip-path="url(#id4)">
        <path fill="#ff1616" d="M 187.886719 6.777344 L 22.0625 97.089844 L 22.0625 277.71875 L 74.882812 306.503906 L 97.4375 283.980469 C 107.476562 273.925781 112.511719 260.785156 112.511719 247.621094 L 112.511719 112.144531 L 142.664062 112.144531 L 142.664062 247.621094 C 142.664062 269.394531 134.183594 289.863281 118.757812 305.269531 L 102.472656 321.527344 L 187.886719 368.035156 L 353.714844 277.71875 L 353.714844 97.089844 Z M 263.277344 172.339844 C 279.929688 172.339844 293.429688 185.816406 293.429688 202.445312 L 293.429688 232.550781 C 293.429688 249.191406 279.929688 262.667969 263.277344 262.667969 L 202.980469 262.667969 C 186.308594 262.667969 172.8125 249.191406 172.8125 232.566406 L 263.265625 232.566406 L 263.265625 202.460938 L 202.960938 202.460938 C 186.308594 202.460938 172.8125 188.984375 172.8125 172.355469 L 172.8125 142.246094 C 172.8125 125.621094 186.308594 112.144531 202.960938 112.144531 L 263.265625 112.144531 C 279.929688 112.144531 293.429688 125.621094 293.429688 142.246094 L 202.960938 142.246094 L 202.960938 172.355469 Z M 263.277344 172.339844 " fill-opacity="1" fill-rule="nonzero" />
    </g>
</svg>